<svg id="visual" viewBox="0 0 900 200" width="900" height="200" xmlns="http://www.w3.org/2000/svg" xmlns:xlink="http://www.w3.org/1999/xlink" version="1.1"><rect x="0" y="0" width="900" height="200" fill="#eae7e6"></rect><path d="M0 95L25 89C50 83 100 71 150 64.7C200 58.3 250 57.7 300 61.8C350 66 400 75 450 89.3C500 103.7 550 123.3 600 134.2C650 145 700 147 750 136.2C800 125.3 850 101.7 875 89.8L900 78L900 0L875 0C850 0 800 0 750 0C700 0 650 0 600 0C550 0 500 0 450 0C400 0 350 0 300 0C250 0 200 0 150 0C100 0 50 0 25 0L0 0Z" fill="#f2f2f2" stroke-linecap="round" stroke-linejoin="miter"></path></svg>