<svg id="visual" viewBox="0 0 900 600" width="900" height="600" xmlns="http://www.w3.org/2000/svg" xmlns:xlink="http://www.w3.org/1999/xlink" version="1.1"><rect x="0" y="0" width="900" height="600" fill="#002233"></rect><path d="M0 104L21.5 108.8C43 113.7 86 123.3 128.8 133.8C171.7 144.3 214.3 155.7 257.2 153.5C300 151.3 343 135.7 385.8 130C428.7 124.3 471.3 128.7 514.2 139C557 149.3 600 165.7 642.8 169.7C685.7 173.7 728.3 165.3 771.2 163.3C814 161.3 857 165.7 878.5 167.8L900 170L900 0L878.5 0C857 0 814 0 771.2 0C728.3 0 685.7 0 642.8 0C600 0 557 0 514.2 0C471.3 0 428.7 0 385.8 0C343 0 300 0 257.2 0C214.3 0 171.7 0 128.8 0C86 0 43 0 21.5 0L0 0Z" fill="#0066FF" stroke-linecap="round" stroke-linejoin="miter"></path></svg>