<svg id="visual" viewBox="0 0 900 600" width="900" height="600" xmlns="http://www.w3.org/2000/svg" xmlns:xlink="http://www.w3.org/1999/xlink" version="1.1"><rect x="0" y="0" width="900" height="600" fill="#ffffff"></rect><path d="M0 216L21.5 214.3C43 212.7 86 209.3 128.8 192.5C171.7 175.7 214.3 145.3 257.2 129.8C300 114.3 343 113.7 385.8 125C428.7 136.3 471.3 159.7 514.2 162.5C557 165.3 600 147.7 642.8 136.2C685.7 124.7 728.3 119.3 771.2 116.8C814 114.3 857 114.7 878.5 114.8L900 115L900 0L878.5 0C857 0 814 0 771.2 0C728.3 0 685.7 0 642.8 0C600 0 557 0 514.2 0C471.3 0 428.7 0 385.8 0C343 0 300 0 257.2 0C214.3 0 171.7 0 128.8 0C86 0 43 0 21.5 0L0 0Z" fill="#eae7e6" stroke-linecap="round" stroke-linejoin="miter"></path></svg>