<svg xmlns="http://www.w3.org/2000/svg" viewBox="0 0 24 24" id="zomato"><path fill="#CC353E" d="M20.188.75H3.671A3 3 0 0 0 .679 3.742v7.611c2.693.133 3.291.067 4.121-.033s1.928-1.33 1.928-1.33 1.03-1.562 3.489-2.227c2.426-.665 5.617.499 5.617.499 3.855 1.362 3.922 3.656 3.922 3.656v.2s-.067 2.26-3.922 3.623c0 0-3.19 1.196-5.617.532-2.459-.665-3.489-2.26-3.489-2.26s-1.097-1.23-1.927-1.329-1.429-.167-4.121-.035v7.611a2.98 2.98 0 0 0 2.992 2.992H20.19a2.979 2.979 0 0 0 2.991-2.992V3.742A3.002 3.002 0 0 0 20.188.75z"></path><path d="M11.603 17a6.994 6.994 0 0 1-1.796-.217c-2.628-.699-3.768-2.396-3.814-2.468-.434-.74-1.054-1.474-1.321-1.58H.75a.75.75 0 0 1 0-1.5h3.921c.268-.105.887-.839 1.301-1.546.072-.109 1.211-1.77 3.838-2.468 2.551-.688 5.756.445 5.891.494 4.172 1.449 4.296 4.06 4.3 4.17v.213c-.004.132-.128 2.711-4.307 4.162-.095.035-2.036.74-4.091.74zM6.11 11.994c.529.515.942 1.164 1.156 1.531.013.015.879 1.264 2.928 1.809 2.092.563 4.966-.475 4.994-.486 3.143-1.092 3.308-2.721 3.312-2.79l-.001-.15c-.004-.031-.167-1.689-3.299-2.778-.034-.012-2.913-1.024-5.004-.459-2.056.546-2.923 1.77-2.958 1.821-.199.344-.611.99-1.128 1.502z"></path><path d="M20.26 24H3.741A3.746 3.746 0 0 1 0 20.259V3.741A3.746 3.746 0 0 1 3.741 0h16.518A3.746 3.746 0 0 1 24 3.741v16.518A3.745 3.745 0 0 1 20.26 24zM3.741 1.5A2.244 2.244 0 0 0 1.5 3.741v16.518c0 1.257.984 2.241 2.241 2.241H20.26c1.256 0 2.24-.984 2.24-2.241V3.741A2.244 2.244 0 0 0 20.259 1.5H3.741z"></path></svg>